<svg xmlns="http://www.w3.org/2000/svg" fill="none" width="110" height="104" version="1.1">
 <path style="fill:#ffffff;fill-opacity:1" d="M 55 0 C 30.559355 0 9.8540701 15.947405 2.6914062 38 L 12.285156 38 C 20.685161 23.082778 36.660587 13 55 13 C 73.339413 13 89.314839 23.082778 97.714844 38 L 107.30859 38 C 100.14593 15.947405 79.440645 0 55 0 z M 55 20 C 40.730289 20 28.131144 27.122654 20.541016 38 L 34.226562 38 C 40.242391 34.204911 47.361503 32 55 32 C 62.638497 32 69.757609 34.204911 75.773438 38 L 89.458984 38 C 81.868856 27.122654 69.269711 20 55 20 z M 0 42 L 0 57.714844 C 2.74352e-16 60.571979 1.6241054 62 4.8730469 62 C 8.1219884 62 9.7460937 60.571979 9.7460938 57.714844 L 9.7460938 42 L 6.9628906 42 L 6.9628906 57.714844 C 6.9628906 58.667222 6.2654504 59.142578 4.8730469 59.142578 C 3.4806434 59.142578 2.7851562 58.667222 2.7851562 57.714844 L 2.7851562 42 L 0 42 z M 11.138672 42 L 11.138672 62 L 13.923828 62 L 13.923828 49.857422 L 18.101562 62 L 20.886719 62 L 20.886719 42 L 18.101562 42 L 18.101562 54.142578 L 13.923828 42 L 11.138672 42 z M 27.152344 42 C 23.903402 42 22.279297 43.428021 22.279297 46.285156 L 22.279297 57.714844 C 22.279297 60.571979 23.903402 62 27.152344 62 C 30.401285 62 32.025391 60.571979 32.025391 57.714844 L 32.025391 56.285156 L 29.240234 56.285156 L 29.240234 57.714844 C 29.240234 58.667222 28.544747 59.142578 27.152344 59.142578 C 25.75994 59.142578 25.0625 58.667222 25.0625 57.714844 L 25.0625 46.285156 C 25.0625 45.332778 25.75994 44.857422 27.152344 44.857422 C 28.544747 44.857422 29.240234 45.332778 29.240234 46.285156 L 29.240234 47.714844 L 32.025391 47.714844 L 32.025391 46.285156 C 32.025391 43.428021 30.401285 42 27.152344 42 z M 33.417969 42 L 33.417969 62 L 43.164062 62 L 43.164062 59.142578 L 36.203125 59.142578 L 36.203125 53.427734 L 41.771484 53.427734 L 41.771484 50.572266 L 36.203125 50.572266 L 36.203125 44.857422 L 43.164062 44.857422 L 43.164062 42 L 33.417969 42 z M 44.556641 42 L 44.556641 62 L 47.341797 62 L 47.341797 49.857422 L 51.519531 62 L 54.304688 62 L 54.304688 42 L 51.519531 42 L 51.519531 54.142578 L 47.341797 42 L 44.556641 42 z M 60.570312 42 C 57.321372 42 55.695312 43.428021 55.695312 46.285156 L 55.695312 49.142578 C 55.695312 51.999713 57.321372 53.427734 60.570312 53.427734 C 61.962716 53.427734 62.658203 53.905043 62.658203 54.857422 L 62.658203 57.714844 C 62.658203 58.667222 61.962716 59.142578 60.570312 59.142578 C 59.177909 59.142578 58.480469 58.667222 58.480469 57.714844 L 58.480469 56.285156 L 55.695312 56.285156 L 55.695312 57.714844 C 55.695312 60.571979 57.321372 62 60.570312 62 C 63.819254 62 65.443359 60.571979 65.443359 57.714844 L 65.443359 54.857422 C 65.443359 52.000287 63.819254 50.572266 60.570312 50.572266 C 59.177909 50.572266 58.480469 50.094957 58.480469 49.142578 L 58.480469 46.285156 C 58.480469 45.332778 59.177909 44.857422 60.570312 44.857422 C 61.962716 44.857422 62.658203 45.332778 62.658203 46.285156 L 62.658203 47.714844 L 65.443359 47.714844 L 65.443359 46.285156 C 65.443359 43.428021 63.819254 42 60.570312 42 z M 71.708984 42 C 68.460043 42 66.835937 43.428021 66.835938 46.285156 L 66.835938 57.714844 C 66.835938 60.571979 68.460043 62 71.708984 62 C 74.957925 62 76.582031 60.571979 76.582031 57.714844 L 76.582031 46.285156 C 76.582031 43.428021 74.957925 42 71.708984 42 z M 77.974609 42 L 77.974609 62 L 80.759766 62 L 80.759766 53.427734 L 82.847656 53.427734 C 84.24006 53.427734 84.9375 53.905043 84.9375 54.857422 L 84.9375 62 L 87.720703 62 L 87.720703 54.857422 C 87.720703 53.647901 87.42856 52.695236 86.84375 52 C 87.42856 51.304764 87.720703 50.352099 87.720703 49.142578 L 87.720703 46.285156 C 87.720703 43.428021 86.096598 42 82.847656 42 L 77.974609 42 z M 89.113281 42 L 89.113281 62 L 98.861328 62 L 98.861328 59.142578 L 91.898438 59.142578 L 91.898438 53.427734 L 97.46875 53.427734 L 97.46875 50.572266 L 91.898438 50.572266 L 91.898438 44.857422 L 98.861328 44.857422 L 98.861328 42 L 89.113281 42 z M 100.25391 42 L 100.25391 62 L 105.12695 62 C 108.3759 62 110 60.571979 110 57.714844 L 110 46.285156 C 110 43.428021 108.3759 42 105.12695 42 L 100.25391 42 z M 71.708984 44.857422 C 73.101387 44.857422 73.796875 45.332778 73.796875 46.285156 L 73.796875 57.714844 C 73.796875 58.667222 73.101387 59.142578 71.708984 59.142578 C 70.316581 59.142578 69.621094 58.667222 69.621094 57.714844 L 69.621094 46.285156 C 69.621094 45.332778 70.316581 44.857422 71.708984 44.857422 z M 80.759766 44.857422 L 82.847656 44.857422 C 84.24006 44.857422 84.9375 45.332778 84.9375 46.285156 L 84.9375 49.142578 C 84.9375 50.094957 84.24006 50.572266 82.847656 50.572266 L 80.759766 50.572266 L 80.759766 44.857422 z M 103.03711 44.857422 L 105.12695 44.857422 C 106.51936 44.857422 107.21484 45.332778 107.21484 46.285156 L 107.21484 57.714844 C 107.21484 58.667222 106.51936 59.142578 105.12695 59.142578 L 103.03711 59.142578 L 103.03711 44.857422 z M 1.109375 66 C 4.3526539 81.970904 14.508515 95.431899 28.326172 103.10938 C 15.939564 95.055757 7.4376905 81.551606 6.1796875 66 L 1.109375 66 z M 13.203125 66 C 13.673101 70.971207 14.994547 75.693879 17.044922 80.007812 C 16.361325 77.116321 16 74.100291 16 71 C 16 69.304786 16.120284 67.638166 16.330078 66 L 13.203125 66 z M 24.40625 66 C 24.142066 67.628441 24 69.296909 24 71 C 24 88.120749 37.879251 102 55 102 C 72.120749 102 86 88.120749 86 71 C 86 69.296909 85.857934 67.628441 85.59375 66 L 80.8125 66 C 79.322896 78.943918 68.343057 89 55 89 C 41.656943 89 30.677104 78.943918 29.1875 66 L 24.40625 66 z M 37.269531 66 C 38.700727 74.509568 46.08357 81 55 81 C 63.91643 81 71.299273 74.509568 72.730469 66 L 37.269531 66 z M 93.669922 66 C 93.879716 67.638166 94 69.304786 94 71 C 94 74.100291 93.638675 77.116321 92.955078 80.007812 C 95.005453 75.693879 96.326899 70.971207 96.796875 66 L 93.669922 66 z M 103.82031 66 C 102.56232 81.551618 94.060528 95.055849 81.673828 103.10938 C 95.491567 95.431899 105.64737 81.970904 108.89062 66 L 103.82031 66 z"/>
</svg>
